<svg xmlns="http://www.w3.org/2000/svg" xmlns:xlink="http://www.w3.org/1999/xlink" width="302" zoomAndPan="magnify" viewBox="0 0 226.5 52.499999" height="70" preserveAspectRatio="xMidYMid meet" version="1.0"><defs><clipPath id="b137c691db"><path d="M 2 2.136719 L 26 2.136719 L 26 49.683594 L 2 49.683594 Z M 2 2.136719 " clip-rule="nonzero"/></clipPath><clipPath id="7c5b8a2fe0"><path d="M 65 2.136719 L 92 2.136719 L 92 49.683594 L 65 49.683594 Z M 65 2.136719 " clip-rule="nonzero"/></clipPath><clipPath id="788b3fce98"><path d="M 97 2.136719 L 107 2.136719 L 107 49.683594 L 97 49.683594 Z M 97 2.136719 " clip-rule="nonzero"/></clipPath><clipPath id="a0f33c39c8"><path d="M 111 2.136719 L 138 2.136719 L 138 49.683594 L 111 49.683594 Z M 111 2.136719 " clip-rule="nonzero"/></clipPath><clipPath id="4b19e27da1"><path d="M 141 2.136719 L 167 2.136719 L 167 49.683594 L 141 49.683594 Z M 141 2.136719 " clip-rule="nonzero"/></clipPath><clipPath id="d4fa7b57ff"><path d="M 171 2.136719 L 197 2.136719 L 197 49.683594 L 171 49.683594 Z M 171 2.136719 " clip-rule="nonzero"/></clipPath><clipPath id="f54a922c8f"><path d="M 202 2.136719 L 224 2.136719 L 224 49.683594 L 202 49.683594 Z M 202 2.136719 " clip-rule="nonzero"/></clipPath><clipPath id="252125228f"><path d="M 52 33 L 62 33 L 62 49.683594 L 52 49.683594 Z M 52 33 " clip-rule="nonzero"/></clipPath><clipPath id="bc75062317"><path d="M 30 2.136719 L 62 2.136719 L 62 18 L 30 18 Z M 30 2.136719 " clip-rule="nonzero"/></clipPath><clipPath id="e6294f2234"><path d="M 30 33 L 40 33 L 40 49.683594 L 30 49.683594 Z M 30 33 " clip-rule="nonzero"/></clipPath></defs><g clip-path="url(#b137c691db)"><path fill="#ffffff" d="M 11.152344 2.144531 L 2.132812 2.144531 L 2.132812 49.679688 L 25.570312 49.679688 L 25.570312 42.480469 L 11.152344 42.480469 Z M 11.152344 2.144531 " fill-opacity="1" fill-rule="nonzero"/></g><g clip-path="url(#7c5b8a2fe0)"><path fill="#ffffff" d="M 65.625 9.308594 L 74.160156 9.308594 L 74.160156 49.648438 L 83.179688 49.648438 L 83.179688 9.308594 L 91.636719 9.308594 L 91.636719 2.175781 L 65.625 2.175781 Z M 65.625 9.308594 " fill-opacity="1" fill-rule="nonzero"/></g><g clip-path="url(#788b3fce98)"><path fill="#ffffff" d="M 97.164062 2.144531 L 106.183594 2.144531 L 106.183594 49.679688 L 97.164062 49.679688 Z M 97.164062 2.144531 " fill-opacity="1" fill-rule="nonzero"/></g><g clip-path="url(#a0f33c39c8)"><path fill="#ffffff" d="M 111.714844 9.308594 L 120.25 9.308594 L 120.25 49.648438 L 129.269531 49.648438 L 129.269531 9.308594 L 137.726562 9.308594 L 137.726562 2.175781 L 111.714844 2.175781 Z M 111.714844 9.308594 " fill-opacity="1" fill-rule="nonzero"/></g><g clip-path="url(#4b19e27da1)"><path fill="#ffffff" d="M 157.25 39.9375 C 157.25 41.480469 155.722656 42.683594 153.867188 42.683594 C 152.097656 42.683594 150.566406 41.480469 150.566406 39.9375 L 150.566406 2.175781 L 141.546875 2.175781 L 141.546875 39.402344 C 141.546875 45.09375 147.101562 49.648438 153.867188 49.648438 C 160.714844 49.648438 166.269531 45.09375 166.269531 39.402344 L 166.269531 2.175781 L 157.25 2.175781 Z M 157.25 39.9375 " fill-opacity="1" fill-rule="nonzero"/></g><g clip-path="url(#d4fa7b57ff)"><path fill="#ffffff" d="M 186.699219 2.144531 L 171.796875 2.144531 L 171.796875 49.679688 L 186.699219 49.679688 C 192.09375 49.679688 196.523438 45.945312 196.523438 41.394531 L 196.523438 10.429688 C 196.523438 5.878906 192.09375 2.144531 186.699219 2.144531 Z M 187.503906 40.582031 C 187.503906 41.667969 186.457031 42.480469 185.25 42.480469 L 180.820312 42.480469 L 180.820312 9.339844 L 185.25 9.339844 C 186.457031 9.339844 187.503906 10.222656 187.503906 11.242188 Z M 187.503906 40.582031 " fill-opacity="1" fill-rule="nonzero"/></g><g clip-path="url(#f54a922c8f)"><path fill="#ffffff" d="M 223.796875 42.617188 L 211.070312 42.617188 L 211.070312 29.511719 L 221.195312 29.511719 L 221.21875 22.3125 L 211.070312 22.3125 L 211.070312 9.339844 L 223.796875 9.339844 L 223.769531 2.144531 L 202.050781 2.144531 L 202.050781 49.679688 L 223.871094 49.679688 Z M 223.796875 42.617188 " fill-opacity="1" fill-rule="nonzero"/></g><g clip-path="url(#252125228f)"><path fill="#ffffff" d="M 52.777344 49.683594 L 61.800781 49.683594 L 61.800781 34.941406 L 52.777344 33.871094 Z M 52.777344 49.683594 " fill-opacity="1" fill-rule="nonzero"/></g><g clip-path="url(#bc75062317)"><path fill="#ffffff" d="M 39.929688 17.988281 L 39.929688 15.097656 C 39.917969 12.394531 42.070312 10.195312 46.355469 10.195312 C 50.367188 10.195312 52.769531 12.394531 52.777344 14.90625 L 52.777344 17.992188 L 61.160156 16.980469 L 61.800781 16.902344 L 61.800781 13.734375 C 61.800781 6.167969 53.199219 2.136719 46.355469 2.136719 C 39.585938 2.136719 30.90625 6.5625 30.90625 13.734375 L 30.90625 16.917969 L 31.53125 16.992188 Z M 39.929688 17.988281 " fill-opacity="1" fill-rule="nonzero"/></g><g clip-path="url(#e6294f2234)"><path fill="#ffffff" d="M 30.90625 49.683594 L 39.929688 49.683594 L 39.929688 33.863281 L 30.90625 34.957031 Z M 30.90625 49.683594 " fill-opacity="1" fill-rule="nonzero"/></g><path fill="#c65655" d="M 65.542969 21.773438 L 61.800781 22.230469 L 61.800781 22.210938 L 52.777344 23.300781 L 52.777344 23.320312 L 49.457031 23.722656 L 49.828125 22.003906 L 50.976562 16.753906 L 47.496094 20.710938 L 44.699219 23.875 C 44.574219 23.863281 44.453125 23.851562 44.328125 23.835938 L 39.929688 23.3125 L 39.929688 23.292969 L 30.90625 22.226562 L 30.90625 22.246094 L 27.128906 21.800781 C 27.105469 21.792969 27.085938 21.808594 27.085938 21.824219 L 27.117188 30.054688 C 27.117188 30.066406 27.140625 30.082031 27.15625 30.082031 L 30.90625 29.628906 L 39.929688 28.535156 L 43.261719 28.132812 L 42.882812 29.886719 L 41.734375 35.136719 L 45.210938 31.179688 L 48.035156 27.988281 C 48.207031 28.003906 48.378906 28.023438 48.546875 28.042969 L 52.777344 28.542969 L 61.800781 29.613281 L 65.578125 30.0625 C 65.597656 30.0625 65.625 30.046875 65.625 30.03125 L 65.589844 21.804688 C 65.589844 21.789062 65.566406 21.773438 65.542969 21.773438 Z M 65.542969 21.773438 " fill-opacity="1" fill-rule="nonzero"/></svg>